REM DIRINDEX 1\2,1\3,1\4,1\5,1\6
REM DIRNAME folder01,folder02,folder03,folder04,folder05,folder06
TITLE ""
FILE "CD1-18.mp3" MP3
  TRACK 01 AUDIO
    TITLE "6:cjc091_0304"
    INDEX 01 00:00:00
  TRACK 02 AUDIO
    TITLE "0:"
    INDEX 01 00:01:19
  TRACK 03 AUDIO
    TITLE "6:cjc091_0305"
    INDEX 01 00:01:38
  TRACK 04 AUDIO
    TITLE "0:"
    INDEX 01 00:03:25
  TRACK 05 AUDIO
    TITLE "2:cjc091_0306"
    INDEX 01 00:04:40
  TRACK 06 AUDIO
    TITLE "0:"
    INDEX 01 00:05:48
  TRACK 07 AUDIO
    TITLE "3:cjc091_0307"
    INDEX 01 00:05:63
  TRACK 08 AUDIO
    TITLE "0:"
    INDEX 01 00:06:47
  TRACK 09 AUDIO
    TITLE "4:cjc091_0308"
    INDEX 01 00:06:73
  TRACK 10 AUDIO
    TITLE "0:"
    INDEX 01 00:10:19
  TRACK 11 AUDIO
    TITLE "2:cjc091_0309"
    INDEX 01 00:11:35
  TRACK 12 AUDIO
    TITLE "0:"
    INDEX 01 00:12:46
  TRACK 13 AUDIO
    TITLE "3:cjc091_0310"
    INDEX 01 00:12:61
  TRACK 14 AUDIO
    TITLE "0:"
    INDEX 01 00:14:04
  TRACK 15 AUDIO
    TITLE "4:cjc091_0311"
    INDEX 01 00:14:23
  TRACK 16 AUDIO
    TITLE "0:"
    INDEX 01 00:17:16
  TRACK 17 AUDIO
    TITLE "2:cjc091_0312"
    INDEX 01 00:18:23
  TRACK 18 AUDIO
    TITLE "0:"
    INDEX 01 00:19:46
  TRACK 19 AUDIO
    TITLE "3:cjc091_0313"
    INDEX 01 00:19:67
  TRACK 20 AUDIO
    TITLE "0:"
    INDEX 01 00:21:55
  TRACK 21 AUDIO
    TITLE "4:cjc091_0314"
    INDEX 01 00:21:70
  TRACK 22 AUDIO
    TITLE "0:"
    INDEX 01 00:25:27
  TRACK 23 AUDIO
    TITLE "2:cjc091_0315"
    INDEX 01 00:26:32
  TRACK 24 AUDIO
    TITLE "0:"
    INDEX 01 00:27:59
  TRACK 25 AUDIO
    TITLE "3:cjc091_0316"
    INDEX 01 00:27:71
  TRACK 26 AUDIO
    TITLE "0:"
    INDEX 01 00:29:60
  TRACK 27 AUDIO
    TITLE "4:cjc091_0317"
    INDEX 01 00:30:05
  TRACK 28 AUDIO
    TITLE "0:"
    INDEX 01 00:32:37
  TRACK 29 AUDIO
    TITLE "2:cjc091_0318"
    INDEX 01 00:33:46
  TRACK 30 AUDIO
    TITLE "0:"
    INDEX 01 00:35:00
  TRACK 31 AUDIO
    TITLE "3:cjc091_0319"
    INDEX 01 00:35:19
  TRACK 32 AUDIO
    TITLE "0:"
    INDEX 01 00:37:08
  TRACK 33 AUDIO
    TITLE "4:cjc091_0320"
    INDEX 01 00:37:26
  TRACK 34 AUDIO
    TITLE "0:"
    INDEX 01 00:40:48
  TRACK 35 AUDIO
    TITLE "2:cjc091_0321"
    INDEX 01 00:41:57
  TRACK 36 AUDIO
    TITLE "0:"
    INDEX 01 00:42:63
  TRACK 37 AUDIO
    TITLE "3:cjc091_0322"
    INDEX 01 00:43:09
  TRACK 38 AUDIO
    TITLE "0:"
    INDEX 01 00:44:46
  TRACK 39 AUDIO
    TITLE "4:cjc091_0323"
    INDEX 01 00:44:60
  TRACK 40 AUDIO
    TITLE "0:"
    INDEX 01 00:47:70
  TRACK 41 AUDIO
    TITLE "2:cjc091_0324"
    INDEX 01 00:49:06
  TRACK 42 AUDIO
    TITLE "0:"
    INDEX 01 00:50:21
  TRACK 43 AUDIO
    TITLE "3:cjc091_0325"
    INDEX 01 00:50:37
  TRACK 44 AUDIO
    TITLE "0:"
    INDEX 01 00:51:67
  TRACK 45 AUDIO
    TITLE "4:cjc091_0326"
    INDEX 01 00:52:12
  TRACK 46 AUDIO
    TITLE "0:"
    INDEX 01 00:56:43
  TRACK 47 AUDIO
    TITLE "2:cjc091_0327"
    INDEX 01 00:57:54
  TRACK 48 AUDIO
    TITLE "0:"
    INDEX 01 00:59:73
  TRACK 49 AUDIO
    TITLE "3:cjc091_0328"
    INDEX 01 01:00:17
  TRACK 50 AUDIO
    TITLE "0:"
    INDEX 01 01:02:01
  TRACK 51 AUDIO
    TITLE "4:cjc091_0329"
    INDEX 01 01:02:22
  TRACK 52 AUDIO
    TITLE "0:"
    INDEX 01 01:05:28
  TRACK 53 AUDIO
    TITLE "2:cjc091_0330"
    INDEX 01 01:06:42
  TRACK 54 AUDIO
    TITLE "0:"
    INDEX 01 01:08:52
  TRACK 55 AUDIO
    TITLE "3:cjc091_0331"
    INDEX 01 01:09:07
  TRACK 56 AUDIO
    TITLE "0:"
    INDEX 01 01:10:67
  TRACK 57 AUDIO
    TITLE "4:cjc091_0332"
    INDEX 01 01:11:17
  TRACK 58 AUDIO
    TITLE "0:"
    INDEX 01 01:14:12
  TRACK 59 AUDIO
    TITLE "2:cjc091_0333"
    INDEX 01 01:15:19
  TRACK 60 AUDIO
    TITLE "0:"
    INDEX 01 01:16:67
  TRACK 61 AUDIO
    TITLE "3:cjc091_0334"
    INDEX 01 01:17:08
  TRACK 62 AUDIO
    TITLE "0:"
    INDEX 01 01:18:25
  TRACK 63 AUDIO
    TITLE "4:cjc091_0335"
    INDEX 01 01:18:49
  TRACK 64 AUDIO
    TITLE "0:"
    INDEX 01 01:24:49
  TRACK 65 AUDIO
    TITLE "2:cjc091_0336"
    INDEX 01 01:25:66
  TRACK 66 AUDIO
    TITLE "0:"
    INDEX 01 01:28:35
  TRACK 67 AUDIO
    TITLE "3:cjc091_0337"
    INDEX 01 01:28:55
  TRACK 68 AUDIO
    TITLE "0:"
    INDEX 01 01:31:61
  TRACK 69 AUDIO
    TITLE "4:cjc091_0338"
    INDEX 01 01:32:12
  TRACK 70 AUDIO
    TITLE "0:"
    INDEX 01 01:35:67
  TRACK 71 AUDIO
    TITLE "2:cjc091_0339"
    INDEX 01 01:37:05
  TRACK 72 AUDIO
    TITLE "0:"
    INDEX 01 01:38:30
  TRACK 73 AUDIO
    TITLE "3:cjc091_0340"
    INDEX 01 01:38:45
  TRACK 74 AUDIO
    TITLE "0:"
    INDEX 01 01:40:35
  TRACK 75 AUDIO
    TITLE "4:cjc091_0341"
    INDEX 01 01:40:52
  TRACK 76 AUDIO
    TITLE "0:"
    INDEX 01 01:43:43
  TRACK 77 AUDIO
    TITLE "2:cjc091_0342"
    INDEX 01 01:44:58
  TRACK 78 AUDIO
    TITLE "0:"
    INDEX 01 01:45:73
  TRACK 79 AUDIO
    TITLE "3:cjc091_0343"
    INDEX 01 01:46:06
  TRACK 80 AUDIO
    TITLE "0:"
    INDEX 01 01:47:64
  TRACK 81 AUDIO
    TITLE "4:cjc091_0344"
    INDEX 01 01:48:11
  TRACK 82 AUDIO
    TITLE "0:"
    INDEX 01 01:52:22
  TRACK 83 AUDIO
    TITLE "2:cjc091_0345"
    INDEX 01 01:53:35
  TRACK 84 AUDIO
    TITLE "0:"
    INDEX 01 01:54:56
  TRACK 85 AUDIO
    TITLE "3:cjc091_0346"
    INDEX 01 01:54:58
  TRACK 86 AUDIO
    TITLE "0:"
    INDEX 01 01:55:58
  TRACK 87 AUDIO
    TITLE "4:cjc091_0347"
    INDEX 01 01:56:08
  TRACK 88 AUDIO
    TITLE "0:"
    INDEX 01 01:59:08
  TRACK 89 AUDIO
    TITLE "2:cjc091_0348"
    INDEX 01 02:00:14
  TRACK 90 AUDIO
    TITLE "0:"
    INDEX 01 02:01:33
  TRACK 91 AUDIO
    TITLE "3:cjc091_0349"
    INDEX 01 02:01:48
  TRACK 92 AUDIO
    TITLE "0:"
    INDEX 01 02:03:53
  TRACK 93 AUDIO
    TITLE "4:cjc091_0350"
    INDEX 01 02:03:73
  TRACK 94 AUDIO
    TITLE "0:"
    INDEX 01 02:06:18
